<svg width="20" height="12" viewBox="0 0 20 12" fill="none" xmlns="http://www.w3.org/2000/svg">
<path d="M5.9999 11.8C5.8999 11.8 5.7999 11.8 5.6999 11.7L0.299902 6.30001C0.0999024 6.10001 0.0999024 5.90001 0.299902 5.70001L5.6999 0.300011C5.7999 0.200011 5.8999 0.200012 5.9999 0.200012C6.0999 0.200012 6.1999 0.200011 6.2999 0.300011C6.4999 0.500011 6.4999 0.700011 6.2999 0.900011L1.6999 5.50001H19.1999C19.4999 5.50001 19.6999 5.70001 19.6999 6.10001C19.6999 6.40001 19.4999 6.60001 19.1999 6.60001H1.6999L6.2999 11.2C6.4999 11.4 6.4999 11.6 6.2999 11.8C6.1999 11.8 6.0999 11.8 5.9999 11.8Z" fill="#333333"/>
</svg>
